<svg width="18" height="18" viewBox="0 0 18 18" fill="none" xmlns="http://www.w3.org/2000/svg">
<g clip-path="url(#clip0_68_6)">
<path d="M14.6242 7.49894C14.5251 7.49894 14.43 7.45958 14.36 7.3895C14.2899 7.31942 14.2505 7.22437 14.2505 7.12526V0.749896H3.74947V7.12526C3.74947 7.22571 3.70957 7.32205 3.63855 7.39307C3.56752 7.4641 3.47119 7.504 3.37074 7.504C3.27029 7.504 3.17396 7.4641 3.10293 7.39307C3.0319 7.32205 2.992 7.22571 2.992 7.12526V0.373689C2.99267 0.27435 3.0326 0.17931 3.10309 0.109302C3.17357 0.0392938 3.26887 6.30096e-06 3.36821 8.5383e-06H14.6166C14.6659 -0.000324476 14.7148 0.0090868 14.7604 0.0277171C14.806 0.0463474 14.8475 0.0738289 14.8825 0.108562C14.9175 0.143295 14.9452 0.184604 14.9642 0.230107C14.9831 0.275609 14.9929 0.324402 14.9929 0.373689V7.12526C14.9929 7.2235 14.9542 7.31779 14.8852 7.38772C14.8162 7.45766 14.7224 7.49762 14.6242 7.49894Z" fill="#687384"/>
<path d="M16.8764 18H1.12609C0.827638 17.9993 0.541602 17.8805 0.330561 17.6694C0.11952 17.4584 0.000666945 17.1723 0 16.8739V6.96115C0.00052338 6.71952 0.0593136 6.48157 0.171398 6.26751C0.283483 6.05345 0.445537 5.86959 0.643831 5.73151L3.16873 3.97925L3.59798 4.59531L1.07308 6.34759C0.973058 6.41581 0.891495 6.50776 0.835725 6.61523C0.780005 6.72206 0.750583 6.84066 0.749887 6.96115V16.8739C0.750549 16.9735 0.790404 17.0688 0.860814 17.1392C0.931224 17.2096 1.02652 17.2495 1.12609 17.2501H16.8764C16.9757 17.2494 17.0708 17.2095 17.1408 17.139C17.2108 17.0686 17.2501 16.9732 17.2501 16.8739V6.96115C17.2505 6.84053 17.2215 6.72161 17.1657 6.6147C17.1098 6.5078 17.0287 6.41611 16.9294 6.34759L14.4045 4.59531L14.8313 3.97925L17.3561 5.73151C17.5547 5.86928 17.717 6.05309 17.8292 6.26722C17.9413 6.48135 17.9999 6.71945 18 6.96115V16.8739C18 17.1721 17.8817 17.4582 17.6711 17.6693C17.4604 17.8804 17.1746 17.9993 16.8764 18Z" fill="#687384"/>
<path d="M0.585789 17.7804C0.505917 17.7801 0.428197 17.7544 0.363905 17.707C0.299613 17.6596 0.252071 17.5929 0.228167 17.5167C0.204263 17.4405 0.205264 17.3587 0.230972 17.2831C0.256679 17.2074 0.305779 17.142 0.371179 17.0961L7.6555 12.0665C7.69596 12.0386 7.74148 12.019 7.78952 12.0088C7.83755 11.9985 7.88713 11.9978 7.93543 12.0068C7.98372 12.0157 8.0298 12.034 8.07101 12.0607C8.11222 12.0874 8.1478 12.122 8.17565 12.1624C8.2035 12.2029 8.22309 12.2484 8.23335 12.2965C8.2436 12.3445 8.24429 12.3941 8.23538 12.4424C8.22647 12.4907 8.20813 12.5368 8.18141 12.578C8.1547 12.6192 8.12015 12.6547 8.0797 12.6826L0.800399 17.7122C0.737646 17.7566 0.662661 17.7804 0.585789 17.7804Z" fill="#687384"/>
<path d="M17.4041 17.7803C17.3281 17.7799 17.2541 17.7561 17.192 17.7122L9.91275 12.6826C9.87229 12.6545 9.83778 12.6188 9.81113 12.5775C9.78448 12.5361 9.76623 12.4899 9.75744 12.4415C9.74864 12.3931 9.74947 12.3434 9.75987 12.2953C9.77028 12.2472 9.79004 12.2016 9.81806 12.1612C9.84608 12.1207 9.8818 12.0862 9.92316 12.0595C9.96453 12.0329 10.0107 12.0146 10.0591 12.0058C10.1076 11.9971 10.1572 11.9979 10.2053 12.0083C10.2534 12.0187 10.299 12.0385 10.3395 12.0665L17.6187 17.0961C17.6841 17.1419 17.7333 17.2074 17.759 17.283C17.7847 17.3587 17.7857 17.4405 17.7617 17.5167C17.7378 17.5929 17.6903 17.6596 17.626 17.7069C17.5617 17.7543 17.484 17.78 17.4041 17.7803Z" fill="#687384"/>
<path d="M10.1248 12.7457H7.87513C7.78966 12.7454 7.70683 12.716 7.6403 12.6623L0.267608 6.72884C0.191186 6.66583 0.142701 6.57522 0.132672 6.47667C0.122643 6.37813 0.15188 6.27961 0.214041 6.20249C0.276201 6.12537 0.366256 6.07589 0.464681 6.06476C0.563106 6.05364 0.661957 6.08176 0.739763 6.14306L8.00643 11.9882H9.99352L17.2627 6.13802C17.341 6.08332 17.4371 6.06043 17.5317 6.07399C17.6262 6.08755 17.712 6.13655 17.7717 6.21105C17.8315 6.28556 17.8606 6.38 17.8533 6.47521C17.846 6.57042 17.8028 6.6593 17.7323 6.7238L10.3596 12.6573C10.2938 12.7128 10.2109 12.744 10.1248 12.7457Z" fill="#687384"/>
<path d="M12.3745 2.9996H8.62507C8.52463 2.9996 8.42829 2.95968 8.35726 2.88865C8.28624 2.81763 8.24634 2.72131 8.24634 2.62086C8.24634 2.52041 8.28624 2.42408 8.35726 2.35305C8.42829 2.28203 8.52463 2.24213 8.62507 2.24213H12.3745C12.475 2.24213 12.5713 2.28203 12.6423 2.35305C12.7134 2.42408 12.7533 2.52041 12.7533 2.62086C12.7533 2.72131 12.7134 2.81763 12.6423 2.88865C12.5713 2.95968 12.475 2.9996 12.3745 2.9996Z" fill="#687384"/>
<path d="M10.8748 4.49935H8.62507C8.52463 4.49935 8.42829 4.45944 8.35726 4.38841C8.28624 4.31738 8.24634 4.22106 8.24634 4.12062C8.24634 4.02017 8.28624 3.92384 8.35726 3.85281C8.42829 3.78178 8.52463 3.74188 8.62507 3.74188H10.8748C10.9752 3.74188 11.0715 3.78178 11.1426 3.85281C11.2136 3.92384 11.2535 4.02017 11.2535 4.12062C11.2535 4.22106 11.2136 4.31738 11.1426 4.38841C11.0715 4.45944 10.9752 4.49935 10.8748 4.49935Z" fill="#687384"/>
<path d="M7.12524 4.49939H5.63555C5.53577 4.49939 5.44008 4.45974 5.36953 4.38918C5.29897 4.31863 5.25934 4.22294 5.25934 4.12316V2.62337C5.26001 2.52404 5.29994 2.429 5.37042 2.35899C5.4409 2.28898 5.5362 2.24969 5.63555 2.24969H7.13532C7.23466 2.24969 7.33 2.28898 7.40048 2.35899C7.47096 2.429 7.51089 2.52404 7.51156 2.62337V4.12316C7.51158 4.17343 7.5015 4.22319 7.48197 4.26951C7.46244 4.31582 7.43381 4.35775 7.3978 4.39282C7.36179 4.42789 7.31914 4.4554 7.27232 4.4737C7.22551 4.492 7.17549 4.50074 7.12524 4.49939ZM5.99912 3.74192H6.75659V2.98445H5.99912V3.74192Z" fill="#687384"/>
<path d="M12.3745 5.99917H8.62507C8.52463 5.99917 8.42829 5.95925 8.35726 5.88823C8.28624 5.8172 8.24634 5.72088 8.24634 5.62043C8.24634 5.51999 8.28624 5.42365 8.35726 5.35263C8.42829 5.2816 8.52463 5.2417 8.62507 5.2417H12.3745C12.475 5.2417 12.5713 5.2816 12.6423 5.35263C12.7134 5.42365 12.7533 5.51999 12.7533 5.62043C12.7533 5.72088 12.7134 5.8172 12.6423 5.88823C12.5713 5.95925 12.475 5.99917 12.3745 5.99917Z" fill="#687384"/>
<path d="M10.8748 7.49893H8.62507C8.52463 7.49893 8.42829 7.45903 8.35726 7.388C8.28624 7.31697 8.24634 7.22064 8.24634 7.12019C8.24634 7.01974 8.28624 6.92342 8.35726 6.8524C8.42829 6.78137 8.52463 6.74146 8.62507 6.74146H10.8748C10.9752 6.74146 11.0715 6.78137 11.1426 6.8524C11.2136 6.92342 11.2535 7.01974 11.2535 7.12019C11.2535 7.22064 11.2136 7.31697 11.1426 7.388C11.0715 7.45903 10.9752 7.49893 10.8748 7.49893Z" fill="#687384"/>
<path d="M7.12524 7.49894H5.63555C5.5362 7.49895 5.4409 7.45966 5.37042 7.38965C5.29994 7.31964 5.26001 7.2246 5.25934 7.12526V5.62547C5.25934 5.5257 5.29897 5.43001 5.36953 5.35945C5.44008 5.2889 5.53577 5.24927 5.63555 5.24927H7.13532C7.2351 5.24927 7.33079 5.2889 7.40134 5.35945C7.47189 5.43001 7.51156 5.5257 7.51156 5.62547V7.12526C7.51124 7.17532 7.50091 7.22481 7.48123 7.27083C7.46155 7.31686 7.43288 7.35847 7.3969 7.39327C7.36093 7.42807 7.31839 7.45536 7.27174 7.4735C7.22509 7.49165 7.17528 7.50029 7.12524 7.49894ZM5.99912 6.74148H6.75659V5.98401H5.99912V6.74148Z" fill="#687384"/>
<path d="M12.3745 8.99874H8.62507C8.52463 8.99874 8.42829 8.95884 8.35726 8.88782C8.28624 8.81679 8.24634 8.72045 8.24634 8.62001C8.24634 8.51956 8.28624 8.42324 8.35726 8.35221C8.42829 8.28119 8.52463 8.24127 8.62507 8.24127H12.3745C12.475 8.24127 12.5713 8.28119 12.6423 8.35221C12.7134 8.42324 12.7533 8.51956 12.7533 8.62001C12.7533 8.72045 12.7134 8.81679 12.6423 8.88782C12.5713 8.95884 12.475 8.99874 12.3745 8.99874Z" fill="#687384"/>
<path d="M10.8748 10.4985H8.62507C8.52463 10.4985 8.42829 10.4586 8.35726 10.3876C8.28624 10.3165 8.24634 10.2202 8.24634 10.1198C8.24634 10.0193 8.28624 9.923 8.35726 9.85197C8.42829 9.78094 8.52463 9.74103 8.62507 9.74103H10.8748C10.9752 9.74103 11.0715 9.78094 11.1426 9.85197C11.2136 9.923 11.2535 10.0193 11.2535 10.1198C11.2535 10.2202 11.2136 10.3165 11.1426 10.3876C11.0715 10.4586 10.9752 10.4985 10.8748 10.4985Z" fill="#687384"/>
<path d="M7.12527 10.4985C7.0762 10.4985 7.02759 10.4889 6.98226 10.4701C6.93692 10.4513 6.89574 10.4238 6.86104 10.3891C6.82634 10.3544 6.79882 10.3132 6.78004 10.2679C6.76126 10.2225 6.75159 10.1739 6.75159 10.1249V8.99874H5.63557C5.53512 8.99874 5.43879 8.95884 5.36776 8.88781C5.29674 8.81679 5.25684 8.72045 5.25684 8.62001C5.25684 8.51956 5.29674 8.42324 5.36776 8.35221C5.43879 8.28119 5.53512 8.24127 5.63557 8.24127H7.13535C7.23512 8.24127 7.33081 8.28092 7.40137 8.35147C7.47192 8.42203 7.51159 8.51772 7.51159 8.61749V10.1173C7.51228 10.168 7.50271 10.2183 7.48348 10.2652C7.46425 10.3121 7.43575 10.3546 7.39967 10.3902C7.36359 10.4258 7.32067 10.4538 7.27352 10.4724C7.22637 10.491 7.17594 10.4999 7.12527 10.4985Z" fill="#687384"/>
</g>
<defs>
<clipPath id="clip0_68_6">
<rect width="18" height="18" fill="white"/>
</clipPath>
</defs>
</svg>
