<svg width="23" height="23" viewBox="0 0 23 23" fill="none" xmlns="http://www.w3.org/2000/svg">
<path d="M21.5579 11.2789C21.5579 9.02648 20.818 6.83637 19.452 5.04537C18.086 3.25437 16.1696 1.96165 13.9973 1.36596C11.825 0.770277 9.51723 0.904617 7.42875 1.74832C5.34027 2.59203 3.58674 4.09839 2.43779 6.03579C1.28884 7.97318 0.808074 10.2343 1.06943 12.4716C1.33078 14.7088 2.31977 16.7983 3.88434 18.4187C5.44891 20.0391 7.50242 21.1008 9.72914 21.4404C11.9559 21.78 14.2325 21.3788 16.209 20.2984L11.2789 11.2789H21.5579Z" stroke="white" stroke-width="2" stroke-linejoin="round"/>
<path d="M21.5579 11.2789C21.5579 8.73169 20.6121 6.27518 18.9038 4.38564C17.1956 2.49609 14.8466 1.30814 12.3122 1.05207L11.2789 11.2789H21.5579Z" stroke="white" stroke-width="2" stroke-linejoin="round"/>
<path d="M19.5116 19.3165C20.9395 18.0477 21.9201 16.3522 22.3077 14.4817L13.6152 12.6804L19.5116 19.3165Z" fill="white"/>
<line x1="16.0144" y1="2.41421" x2="12.4142" y2="6.00236" stroke="white" stroke-width="2" stroke-linecap="round"/>
<line x1="18.8201" y1="4.28335" x2="12.7587" y2="10.3447" stroke="white" stroke-width="2" stroke-linecap="round"/>
<line x1="20.689" y1="7.08658" x2="16.4965" y2="11.2791" stroke="white" stroke-width="2" stroke-linecap="round"/>
</svg>
