<svg width="24" height="23" viewBox="0 0 24 23" fill="none" xmlns="http://www.w3.org/2000/svg">
<path d="M18.7692 14.5394L22.1538 13.6932L23 17.0778" stroke="#33FFF9" stroke-width="2" stroke-linecap="round" stroke-linejoin="round"/>
<path d="M22.1538 13.6933C21.4022 15.8232 20.0368 17.683 18.2299 19.0383C16.4229 20.3935 14.2552 21.1835 12 21.3087C9.91527 21.309 7.88095 20.6677 6.17336 19.4718C4.46576 18.2759 3.16767 16.5833 2.45538 14.6241" stroke="#33FFF9" stroke-width="2" stroke-linecap="round" stroke-linejoin="round"/>
<path d="M5.23077 7.7702L1.84615 8.61636L1 5.23174" stroke="#33FFF9" stroke-width="2" stroke-linecap="round" stroke-linejoin="round"/>
<path d="M1.84613 8.61636C3.26767 4.72405 7.63382 1.00098 12 1.00098C14.0949 1.00686 16.1367 1.66057 17.8454 2.87246C19.5542 4.08436 20.8463 5.79512 21.5446 7.77021" stroke="#33FFF9" stroke-width="2" stroke-linecap="round" stroke-linejoin="round"/>
</svg>
