<svg width="143" height="147" viewBox="0 0 143 147" fill="none" xmlns="http://www.w3.org/2000/svg">
<path d="M56.6408 85H57.7328V77.734L61.3028 84.44L64.8728 77.734V85H65.9648V75.382H64.8728L61.3028 82.088L57.7328 75.382H56.6408V85ZM69.2445 83.964V75.382H68.1525V85H74.4945V83.964H69.2445ZM83.7216 78.462C83.7216 76.656 82.1676 75.382 80.1796 75.382H76.2736V85H77.3656V81.542H79.4936L81.9296 85H83.1756L80.7256 81.514C82.4476 81.304 83.7216 80.1 83.7216 78.462ZM77.3656 76.418H79.9836C81.5516 76.418 82.6156 77.174 82.6156 78.462C82.6156 79.75 81.5516 80.506 79.9836 80.506H77.3656V76.418ZM41.342 99H42.434V89.382H41.342V99ZM47.7593 91.594C46.7233 91.594 45.7993 92.14 45.3792 92.91V91.762H44.3293V99H45.3792V94.394C45.3792 93.372 46.3873 92.532 47.6193 92.532C48.6833 92.532 49.4253 93.344 49.4253 94.534V99H50.4753V94.394C50.4753 92.728 49.3693 91.594 47.7593 91.594ZM55.4018 91.594C54.3658 91.594 53.4418 92.14 53.0218 92.91V91.762H51.9718V99H53.0218V94.394C53.0218 93.372 54.0298 92.532 55.2618 92.532C56.3258 92.532 57.0678 93.344 57.0678 94.534V99H58.1178V94.394C58.1178 92.728 57.0118 91.594 55.4018 91.594ZM63.0444 99.168C65.0884 99.168 66.7684 97.46 66.7684 95.374C66.7684 93.288 65.0884 91.594 63.0444 91.594C60.9864 91.594 59.3064 93.288 59.3064 95.374C59.3064 97.46 60.9864 99.168 63.0444 99.168ZM63.0444 98.23C61.5884 98.23 60.3984 96.942 60.3984 95.374C60.3984 93.806 61.5884 92.532 63.0444 92.532C64.4864 92.532 65.6764 93.806 65.6764 95.374C65.6764 96.942 64.4864 98.23 63.0444 98.23ZM70.3685 99H71.3765L74.4145 91.762H73.2385L70.8725 97.768L68.4645 91.762H67.2885L70.3685 99ZM78.1547 91.594C77.4547 91.594 76.5867 91.776 75.5507 92.294L75.9707 93.148C76.6287 92.812 77.3567 92.49 78.0847 92.49C79.6527 92.49 80.0447 93.61 80.0447 94.59V94.856C79.3027 94.618 78.4767 94.45 77.6927 94.45C76.1387 94.45 74.8507 95.416 74.8507 96.858C74.8507 98.286 75.9707 99.168 77.4967 99.168C78.4487 99.168 79.5267 98.72 80.0447 97.866V99H81.0947V94.59C81.0947 92.84 80.1287 91.594 78.1547 91.594ZM77.6787 98.244C76.6567 98.244 75.8727 97.712 75.8727 96.816C75.8727 95.948 76.7827 95.332 77.8607 95.332C78.6447 95.332 79.3867 95.444 80.0447 95.626V96.732C79.7647 97.754 78.6307 98.244 77.6787 98.244ZM85.8061 97.936C85.6521 98.104 85.3721 98.23 85.0501 98.23C84.6301 98.23 84.2661 97.852 84.2661 97.32V92.7H86.0441V91.762H84.2661V89.774H83.2161V91.762H82.0821V92.7H83.2161V97.32C83.2161 98.398 83.9441 99.168 84.9801 99.168C85.4701 99.168 85.9461 99 86.3241 98.706L85.8061 97.936ZM90.4702 99.168C92.5142 99.168 94.1942 97.46 94.1942 95.374C94.1942 93.288 92.5142 91.594 90.4702 91.594C88.4122 91.594 86.7322 93.288 86.7322 95.374C86.7322 97.46 88.4122 99.168 90.4702 99.168ZM90.4702 98.23C89.0142 98.23 87.8242 96.942 87.8242 95.374C87.8242 93.806 89.0142 92.532 90.4702 92.532C91.9122 92.532 93.1022 93.806 93.1022 95.374C93.1022 96.942 91.9122 98.23 90.4702 98.23ZM96.5257 93.176V91.762H95.4757V99H96.5257V94.954C96.5257 93.54 97.6877 92.532 99.3257 92.532V91.594C97.9957 91.594 96.9597 92.21 96.5257 93.176Z" fill="#C4C4C4"/>
<path d="M54.52 66.48C60.16 66.48 64.28 62.88 64.28 57.44C64.28 52 60.16 48.88 55.2 48.88C52.68 48.88 50.8 49.72 49.32 50.72L49.6 41.48H62.8V38.52H46.56L46.16 52.64L48.44 53.76C50.16 52.48 52.2 51.64 54.56 51.64C58.4 51.64 61.12 54.04 61.12 57.56C61.12 61.04 58.44 63.68 54.64 63.68C51.6 63.68 49 62.16 46.88 59.84L44.84 62.12C47.08 64.68 50.28 66.48 54.52 66.48ZM77.8794 66.48C83.5194 66.48 87.6394 62.88 87.6394 57.44C87.6394 52 83.5194 48.88 78.5594 48.88C76.0394 48.88 74.1594 49.72 72.6794 50.72L72.9594 41.48H86.1594V38.52H69.9194L69.5194 52.64L71.7994 53.76C73.5194 52.48 75.5594 51.64 77.9194 51.64C81.7594 51.64 84.4794 54.04 84.4794 57.56C84.4794 61.04 81.7994 63.68 77.9994 63.68C74.9594 63.68 72.3594 62.16 70.2394 59.84L68.1994 62.12C70.4394 64.68 73.6394 66.48 77.8794 66.48Z" fill="#C4C4C4"/>
<path d="M76.5678 138.64C66.5735 139.661 56.4765 138.504 46.9726 135.248C37.4686 131.991 28.7836 126.713 21.5159 119.777C14.2483 112.841 8.5708 104.411 4.87464 95.0697C1.17849 85.728 -0.448461 75.696 0.105903 65.6649C0.660267 55.6339 3.38276 45.8423 8.0858 36.9647C12.7888 28.0872 19.3606 20.3348 27.3483 14.2416C35.336 8.14854 44.5498 3.85958 54.3547 1.6703C64.1596 -0.51899 74.3226 -0.556557 84.1434 1.56018L81.6175 13.2798C73.4907 11.5282 65.0808 11.5593 56.9673 13.3709C48.8537 15.1826 41.2293 18.7317 34.6195 23.7737C28.0097 28.8158 22.5715 35.2309 18.6798 42.577C14.788 49.9232 12.5351 58.0258 12.0764 66.3265C11.6177 74.6272 12.9639 82.9287 16.0225 90.659C19.0811 98.3892 23.7792 105.365 29.7932 111.104C35.8072 116.844 42.994 121.212 50.8585 123.906C58.7231 126.601 67.0783 127.559 75.3486 126.713L76.5678 138.64Z" fill="#E9ECEF" fill-opacity="0.5"/>
<g filter="url(#filter0_d_0_1)">
<path d="M69.5 5.99516C69.5 2.68413 72.1891 -0.0268327 75.4878 0.25843C83.4718 0.94886 91.2918 3.01642 98.5968 6.38407C107.72 10.5901 115.824 16.7241 122.348 24.3634C128.873 32.0027 133.664 40.9657 136.391 50.6349C139.118 60.3041 139.716 70.4495 138.144 80.3722C136.573 90.2949 132.869 99.7589 127.287 108.112C121.706 116.465 114.38 123.509 105.814 128.758C97.2477 134.008 87.6456 137.337 77.6688 138.518C69.6807 139.464 61.6045 139.014 53.7979 137.203C50.5725 136.455 48.8528 133.046 49.8759 129.897V129.897C50.8991 126.748 54.2781 125.057 57.5165 125.747C63.6615 127.057 69.9933 127.353 76.2595 126.611C84.5151 125.634 92.4606 122.879 99.5487 118.535C106.637 114.191 112.699 108.363 117.318 101.451C121.936 94.5386 125.001 86.7073 126.302 78.4965C127.602 70.2857 127.107 61.8906 124.851 53.8895C122.594 45.8885 118.63 38.4718 113.231 32.1504C107.832 25.8291 101.127 20.7533 93.577 17.273C87.8466 14.6312 81.7332 12.9563 75.4844 12.3025C72.1913 11.958 69.5 9.30618 69.5 5.99516V5.99516Z" fill="url(#paint0_linear_0_1)"/>
</g>
<defs>
<filter id="filter0_d_0_1" x="45.5811" y="0.237785" width="97.4189" height="146.762" filterUnits="userSpaceOnUse" color-interpolation-filters="sRGB">
<feFlood flood-opacity="0" result="BackgroundImageFix"/>
<feColorMatrix in="SourceAlpha" type="matrix" values="0 0 0 0 0 0 0 0 0 0 0 0 0 0 0 0 0 0 127 0" result="hardAlpha"/>
<feOffset dy="4"/>
<feGaussianBlur stdDeviation="2"/>
<feComposite in2="hardAlpha" operator="out"/>
<feColorMatrix type="matrix" values="0 0 0 0 0 0 0 0 0 0 0 0 0 0 0 0 0 0 0.25 0"/>
<feBlend mode="normal" in2="BackgroundImageFix" result="effect1_dropShadow_0_1"/>
<feBlend mode="normal" in="SourceGraphic" in2="effect1_dropShadow_0_1" result="shape"/>
</filter>
<linearGradient id="paint0_linear_0_1" x1="69.1323" y1="69.8677" x2="139" y2="69.5" gradientUnits="userSpaceOnUse">
<stop offset="0.276042" stop-color="#FC2574"/>
<stop offset="1" stop-color="#C945DB"/>
</linearGradient>
</defs>
</svg>
