<svg width="24" height="24" viewBox="0 0 24 24" fill="none" xmlns="http://www.w3.org/2000/svg">
<path d="M22.1539 11.1541H15.3847C14.9173 11.1541 14.5385 11.5329 14.5385 12.0002V22.1541C14.5385 22.6214 14.9173 23.0002 15.3847 23.0002H22.1539C22.6212 23.0002 23.0001 22.6214 23.0001 22.1541V12.0002C23.0001 11.5329 22.6212 11.1541 22.1539 11.1541Z" stroke="#33FFF9" stroke-width="2" stroke-linecap="round" stroke-linejoin="round"/>
<path d="M22.1539 1H15.3847C14.9173 1 14.5385 1.37884 14.5385 1.84615V5.24769C14.5385 5.71501 14.9173 6.09385 15.3847 6.09385H22.1539C22.6212 6.09385 23.0001 5.71501 23.0001 5.24769V1.84615C23.0001 1.37884 22.6212 1 22.1539 1Z" stroke="#33FFF9" stroke-width="2" stroke-linecap="round" stroke-linejoin="round"/>
<path d="M8.61538 1H1.84615C1.37884 1 1 1.37884 1 1.84615V12C1 12.4673 1.37884 12.8462 1.84615 12.8462H8.61538C9.0827 12.8462 9.46154 12.4673 9.46154 12V1.84615C9.46154 1.37884 9.0827 1 8.61538 1Z" stroke="#33FFF9" stroke-width="2" stroke-linecap="round" stroke-linejoin="round"/>
<path d="M8.61538 17.9064H1.84615C1.37884 17.9064 1 18.2852 1 18.7526V22.1541C1 22.6214 1.37884 23.0002 1.84615 23.0002H8.61538C9.0827 23.0002 9.46154 22.6214 9.46154 22.1541V18.7526C9.46154 18.2852 9.0827 17.9064 8.61538 17.9064Z" stroke="#33FFF9" stroke-width="2" stroke-linecap="round" stroke-linejoin="round"/>
</svg>
