<svg width="19" height="24" viewBox="0 0 19 24" fill="none" xmlns="http://www.w3.org/2000/svg">
<path d="M12.8462 4.38461H2.69231C1.75767 4.38461 1 5.14228 1 6.07692V21.3077C1 22.2423 1.75767 23 2.69231 23H12.8462C13.7808 23 14.5385 22.2423 14.5385 21.3077V6.07692C14.5385 5.14228 13.7808 4.38461 12.8462 4.38461Z" stroke="#BACEE0" stroke-width="2" stroke-linecap="round" stroke-linejoin="round"/>
<path d="M4.38464 15.3846L7.76926 18.7692L11.1539 15.3846" stroke="#BACEE0" stroke-width="2" stroke-linecap="round" stroke-linejoin="round"/>
<path d="M7.76923 18.7692V11.1538" stroke="#BACEE0" stroke-width="2" stroke-linecap="round" stroke-linejoin="round"/>
<path d="M4.38464 8.61539H11.1539" stroke="#BACEE0" stroke-width="2" stroke-linecap="round" stroke-linejoin="round"/>
<path d="M5.23077 1H16.2308C16.6796 1 17.11 1.1783 17.4274 1.49567C17.7448 1.81303 17.9231 2.24348 17.9231 2.69231V18.7692" stroke="#BACEE0" stroke-width="2" stroke-linecap="round" stroke-linejoin="round"/>
</svg>
