<svg width="74" height="42" viewBox="0 0 74 42" fill="none" xmlns="http://www.w3.org/2000/svg">
<circle cx="36.6685" cy="21.5" r="17.5" fill="#67757C"/>
<mask id="path-2-inside-1_19_34" fill="white">
<path fill-rule="evenodd" clip-rule="evenodd" d="M3.91669e-07 21C7.38337 8.43472 21.0409 0 36.6685 0C52.2961 0 65.9536 8.43472 73.337 21C65.9536 33.5653 52.2961 42 36.6685 42C21.0409 42 7.38337 33.5653 3.91669e-07 21Z"/>
</mask>
<path d="M0 21L-0.862173 20.4934L-1.15986 21L-0.862173 21.5066L0 21ZM73.337 21L74.1992 21.5066L74.4969 21L74.1992 20.4934L73.337 21ZM0.862173 21.5066C8.07335 9.23437 21.4099 1 36.6685 1V-1C20.672 -1 6.69339 7.63506 -0.862173 20.4934L0.862173 21.5066ZM36.6685 1C51.9271 1 65.2636 9.23437 72.4748 21.5066L74.1992 20.4934C66.6436 7.63506 52.665 -1 36.6685 -1V1ZM72.4748 20.4934C65.2636 32.7656 51.9271 41 36.6685 41V43C52.665 43 66.6436 34.3649 74.1992 21.5066L72.4748 20.4934ZM36.6685 41C21.4099 41 8.07335 32.7656 0.862173 20.4934L-0.862173 21.5066C6.69339 34.3649 20.672 43 36.6685 43V41Z" fill="#687384" mask="url(#path-2-inside-1_19_34)"/>
</svg>
