<svg width="24" height="24" viewBox="0 0 24 24" fill="none" xmlns="http://www.w3.org/2000/svg">
<path d="M9.98513 21.3087C8.51342 21.3087 7.04726 21.4892 5.61949 21.8461L1 23.001L1.81992 20.5412C2.39773 18.8078 2.69231 16.9925 2.69231 15.1653V2.69328C2.69231 2.24446 2.8706 1.81401 3.18797 1.49664C3.50534 1.17927 3.93579 1.00098 4.38462 1.00098H21.3077C21.7565 1.00098 22.187 1.17927 22.5043 1.49664C22.8217 1.81401 23 2.24446 23 2.69328V19.6164C23 20.0652 22.8217 20.4956 22.5043 20.813C22.187 21.1304 21.7565 21.3087 21.3077 21.3087H9.98513Z" stroke="#BACEE0" stroke-width="2" stroke-linecap="round" stroke-linejoin="round"/>
<line x1="7.0769" y1="6.07812" x2="18.6154" y2="6.07812" stroke="#BACEE0" stroke-width="2" stroke-linecap="round"/>
<line x1="7.0769" y1="11.1548" x2="18.6154" y2="11.1548" stroke="#BACEE0" stroke-width="2" stroke-linecap="round"/>
<line x1="7.0769" y1="16.2319" x2="13.5384" y2="16.2319" stroke="#BACEE0" stroke-width="2" stroke-linecap="round"/>
</svg>
