<svg width="16" height="20" viewBox="0 0 16 20" fill="none" xmlns="http://www.w3.org/2000/svg">
<path opacity="0.9" d="M13.74 19.1745H2.09C1.6683 19.1745 1.26388 19.0069 0.965698 18.7088C0.667515 18.4106 0.5 18.0061 0.5 17.5844V7.58444C0.5 7.16275 0.667515 6.75833 0.965698 6.46014C1.26388 6.16196 1.6683 5.99445 2.09 5.99445H13.74C14.1617 5.99445 14.5661 6.16196 14.8643 6.46014C15.1625 6.75833 15.33 7.16275 15.33 7.58444V17.5844C15.33 18.0061 15.1625 18.4106 14.8643 18.7088C14.5661 19.0069 14.1617 19.1745 13.74 19.1745V19.1745ZM2.09 6.61444C1.82478 6.61444 1.57043 6.7198 1.38289 6.90733C1.19535 7.09487 1.09 7.34922 1.09 7.61444V17.6144C1.09 17.8797 1.19535 18.134 1.38289 18.3215C1.57043 18.5091 1.82478 18.6145 2.09 18.6145H13.74C14.0052 18.6145 14.2596 18.5091 14.4471 18.3215C14.6346 18.134 14.74 17.8797 14.74 17.6144V7.61444C14.74 7.34922 14.6346 7.09487 14.4471 6.90733C14.2596 6.7198 14.0052 6.61444 13.74 6.61444H2.09Z" fill="#D1D1D1"/>
<path opacity="0.9" d="M12.41 6.47443C12.3312 6.47192 12.2564 6.43952 12.2006 6.38379C12.1449 6.32806 12.1125 6.25319 12.11 6.17442V4.43443C12.11 3.36163 11.6838 2.33276 10.9252 1.57417C10.1667 0.815588 9.1378 0.38942 8.065 0.38942C6.9922 0.38942 5.96333 0.815588 5.20474 1.57417C4.44616 2.33276 4.01999 3.36163 4.01999 4.43443V6.17442C4.01999 6.25399 3.98839 6.33029 3.93213 6.38655C3.87587 6.44281 3.79957 6.47443 3.72 6.47443C3.64044 6.47443 3.56412 6.44281 3.50786 6.38655C3.4516 6.33029 3.42 6.25399 3.42 6.17442V4.43443C3.47544 3.23978 3.98903 2.11242 4.85406 1.28661C5.7191 0.460788 6.86907 0 8.065 0C9.26094 0 10.4109 0.460788 11.2759 1.28661C12.141 2.11242 12.6545 3.23978 12.71 4.43443V6.17442C12.71 6.25399 12.6784 6.33029 12.6221 6.38655C12.5659 6.44281 12.4896 6.47443 12.41 6.47443V6.47443Z" fill="#D1D1D1"/>
<path opacity="0.9" d="M7.87 13.1944C7.48686 13.1634 7.12946 12.9892 6.86887 12.7067C6.60827 12.4241 6.46359 12.0538 6.46359 11.6694C6.46359 11.285 6.60827 10.9147 6.86887 10.6322C7.12946 10.3496 7.48686 10.1755 7.87 10.1444C8.08064 10.1273 8.29255 10.1541 8.49234 10.223C8.69213 10.2919 8.87548 10.4014 9.03084 10.5447C9.1862 10.688 9.3102 10.8619 9.395 11.0554C9.47981 11.249 9.52359 11.4581 9.52359 11.6694C9.52359 11.8808 9.47981 12.0898 9.395 12.2834C9.3102 12.4769 9.1862 12.6508 9.03084 12.7941C8.87548 12.9374 8.69213 13.0469 8.49234 13.1158C8.29255 13.1847 8.08064 13.2115 7.87 13.1944V13.1944ZM7.87 10.7944C7.69595 10.7944 7.5258 10.846 7.38109 10.9427C7.23637 11.0394 7.12358 11.1768 7.05698 11.3376C6.99037 11.4984 6.97294 11.6754 7.0069 11.8461C7.04085 12.0168 7.12467 12.1736 7.24774 12.2967C7.37081 12.4197 7.52762 12.5035 7.69832 12.5375C7.86902 12.5715 8.04596 12.554 8.20676 12.4874C8.36756 12.4208 8.50499 12.308 8.60168 12.1633C8.69838 12.0186 8.75 11.8484 8.75 11.6744C8.75 11.441 8.65728 11.2172 8.49225 11.0521C8.32722 10.8871 8.10339 10.7944 7.87 10.7944V10.7944Z" fill="#D1D1D1"/>
<path opacity="0.9" d="M7.92 12.5544V15.5544" stroke="#D1D1D1" stroke-width="0.82" stroke-miterlimit="10"/>
</svg>
