<svg width="55" height="48" viewBox="0 0 55 48" fill="none" xmlns="http://www.w3.org/2000/svg">
<path d="M0 23.9732C0 24.3482 0.116374 24.6741 0.349121 24.9509C0.581868 25.2277 0.877279 25.4018 1.23535 25.4732L6.74072 35.0089C6.68701 35.1696 6.66016 35.3304 6.66016 35.4911C6.66016 35.8482 6.77205 36.1652 6.99585 36.442C7.21965 36.7188 7.51058 36.8929 7.86865 36.9643L13.0518 45.9911C12.998 46.1339 12.9712 46.2768 12.9712 46.4196C12.9712 46.8304 13.1189 47.1875 13.4143 47.4911C13.7097 47.7946 14.0723 47.9464 14.502 47.9464C14.9495 47.9464 15.3166 47.7857 15.603 47.4643H26.3452C26.6496 47.8214 27.0345 48 27.5 48C27.9655 48 28.3504 47.8214 28.6548 47.4643H39.3701C39.6745 47.8214 40.0594 48 40.5249 48C40.9367 48 41.2948 47.8527 41.5991 47.558C41.9035 47.2634 42.0557 46.9018 42.0557 46.4732C42.0557 46.3304 42.0199 46.1518 41.9482 45.9375L47.1313 36.9643C47.4894 36.8929 47.7804 36.7188 48.0042 36.442C48.2279 36.1652 48.3398 35.8482 48.3398 35.4911C48.3398 35.3304 48.313 35.1696 48.2593 35.0089L53.7915 25.4732C54.1496 25.3839 54.4405 25.2009 54.6643 24.9241C54.8881 24.6473 55 24.3304 55 23.9732C55 23.5982 54.8792 23.2723 54.6375 22.9955C54.3958 22.7188 54.0959 22.5446 53.7378 22.4732L48.3936 13.2589C48.3936 13.2411 48.398 13.2143 48.407 13.1786C48.4159 13.1429 48.4204 13.1161 48.4204 13.0982C48.4204 12.4554 48.116 12 47.5073 11.7321L41.8945 2.00893C41.9661 1.83036 42.002 1.66964 42.002 1.52679C42.002 1.09821 41.8498 0.736607 41.5454 0.441964C41.241 0.147321 40.883 0 40.4712 0C40.0057 0 39.6118 0.1875 39.2896 0.5625H28.6548C28.3683 0.1875 27.9834 0 27.5 0C27.0166 0 26.6317 0.1875 26.3452 0.5625H15.6567C15.3345 0.1875 14.9406 0 14.4751 0C14.0633 0 13.7052 0.147321 13.4009 0.441964C13.0965 0.736607 12.9443 1.09821 12.9443 1.52679C12.9443 1.63393 12.9801 1.79464 13.0518 2.00893L7.49268 11.5982C7.08089 11.6161 6.73177 11.7723 6.44531 12.067C6.15885 12.3616 6.01562 12.7054 6.01562 13.0982C6.01562 13.3304 6.07829 13.5714 6.20361 13.8214L1.18164 22.5C0.841471 22.5714 0.559489 22.7455 0.335693 23.0223C0.111898 23.2991 0 23.6161 0 23.9732ZM26.4526 45.375H16.0059L25.1904 35.8929H29.0308L38.2153 45.375H28.5474C28.2251 45.0893 27.876 44.9464 27.5 44.9464C27.124 44.9464 26.7749 45.0893 26.4526 45.375ZM51.9922 23.625C51.9743 23.6964 51.9653 23.8125 51.9653 23.9732C51.9653 24.1518 51.9832 24.2857 52.019 24.375L46.4331 34.0179L46.0303 34.1786L40.9814 28.8482V19.5536L46.0034 14.3571C46.2362 14.5 46.4958 14.5893 46.7822 14.625L51.9922 23.625ZM28.5205 2.625H38.9404L33.8379 7.98214L18.96 2.625H26.4795C26.766 2.91071 27.1061 3.05357 27.5 3.05357C27.8939 3.05357 28.234 2.91071 28.5205 2.625ZM9.64111 35.0893C9.62321 34.9821 9.57845 34.8839 9.50684 34.7946L11.2256 32.9732L11.6821 35.0893H9.64111ZM12.4878 35.0893L11.897 32.2768L18.6646 25.1518L26.6138 33.375L24.9219 35.0893H12.4878ZM14.8511 44.9464L14.4214 44.1964L12.6758 35.8929H24.1431L15.2002 45.0804C15.057 45.0089 14.9406 44.9643 14.8511 44.9464ZM39.4775 45.375H39.3433L30.1587 35.8929H40.1758V44.8661L40.0684 45.0268C39.8177 45.1161 39.6208 45.2321 39.4775 45.375ZM40.1758 35.0893H29.3799L27.6611 33.3214L35.9595 24.7232L40.1758 29.1696V35.0893ZM45.3589 35.0893H40.9814V30.0268L45.4932 34.7679C45.4215 34.9107 45.3768 35.0179 45.3589 35.0893ZM45.3857 12.9911C45.3857 13.0089 45.3813 13.0268 45.3723 13.0446C45.3634 13.0625 45.3589 13.0804 45.3589 13.0982C45.3589 13.3839 45.4305 13.6429 45.5737 13.875L40.9814 18.6161V11.4107L45.3857 12.9911ZM40.1758 11.1161V19.4464L36.0669 23.6518L28.0908 15.2411L34.0796 8.91964L40.1758 11.1161ZM40.0684 2.97321L40.1758 3.1875V10.2589L34.6704 8.27679L39.7998 2.89286C39.9072 2.92857 39.9967 2.95536 40.0684 2.97321ZM16.1401 2.625H16.5698L33.2471 8.625L27.5269 14.6518L16.1401 2.625ZM27.5269 15.8036L35.5029 24.2411L27.1509 32.7857L19.2017 24.5625L27.5269 15.8036ZM36.5234 24.1607L40.1758 20.3839V27.9911L36.5234 24.1607ZM27.124 33.9107L28.252 35.0893H25.9692L27.124 33.9107ZM18.1006 24.5893L11.709 31.3125L8.16406 14.5982L8.24463 14.4643L8.27148 14.4375L18.1006 24.5893ZM8.8623 13.875C9.00553 13.6429 9.07715 13.3839 9.07715 13.0982V13.0446L14.8779 2.97321C14.9674 2.95536 15.0838 2.91071 15.2271 2.83929L26.9629 15.2411L18.6377 24L8.8623 13.875ZM40.9814 10.5536V4.58036L45.3589 12.1339L40.9814 10.5536ZM40.9814 35.8929H45.3589L40.9814 43.4732V35.8929ZM11.8433 35.8929L13.1323 41.9732L9.64111 35.8929H11.8433ZM8.56689 34.0179L3.00781 24.3482C3.04362 24.1696 3.06152 24.0446 3.06152 23.9732C3.06152 23.9554 3.03467 23.8125 2.98096 23.5446L7.57324 15.6161L11.0376 32.0089L8.96973 34.2054C8.88021 34.1518 8.74593 34.0893 8.56689 34.0179Z" fill="#67757C"/>
</svg>
