<svg width="18" height="18" viewBox="0 0 18 18" fill="none" xmlns="http://www.w3.org/2000/svg">
<path d="M15.7572 13.7991C16.8301 12.8428 17.4377 11.5682 17.4377 10.2456C17.4377 8.83986 16.7796 7.52523 15.5847 6.5436C14.4217 5.58854 12.8824 5.0625 11.25 5.0625C9.61763 5.0625 8.07827 5.58854 6.91548 6.54367C5.72055 7.52523 5.0625 8.83986 5.0625 10.2456C5.0625 11.6512 5.72055 12.9659 6.91548 13.9475C8.07827 14.9026 9.61763 15.4286 11.25 15.4286C11.4675 15.4286 11.6864 15.419 11.9034 15.3999L12.2741 15.7213C13.5514 16.8281 15.1849 17.4374 16.875 17.4375H17.4375V16.2402L17.2728 16.0755C16.6229 15.4237 16.1079 14.6501 15.7572 13.7991V13.7991ZM13.0109 14.8711L12.267 14.2263L12.0189 14.2567C11.7638 14.2879 11.507 14.3036 11.25 14.3036C8.45859 14.3036 6.1875 12.4831 6.1875 10.2456C6.1875 8.00796 8.45859 6.1875 11.25 6.1875C14.0414 6.1875 16.3125 8.00793 16.3125 10.2456C16.3125 11.3604 15.7563 12.4011 14.7464 13.1761L14.4225 13.4247L14.5719 13.8478C14.8783 14.7119 15.3286 15.518 15.9037 16.232C14.8326 16.0532 13.8316 15.5823 13.0109 14.8711V14.8711Z" fill="white"/>
<path d="M2.11588 11.1613C2.64242 10.4947 3.05584 9.74622 3.3396 8.94561L3.48796 8.52462L3.16427 8.2762C2.21196 7.54545 1.6875 6.56466 1.6875 5.5145C1.6875 3.40429 3.83235 1.6875 6.46875 1.6875C8.40825 1.6875 10.0817 2.61668 10.8308 3.94805C10.9699 3.9413 11.1097 3.9375 11.25 3.9375C11.5319 3.9375 11.8112 3.95118 12.0879 3.97853C11.7984 3.22847 11.2956 2.54377 10.6043 1.97599C9.49472 1.0645 8.02617 0.5625 6.46875 0.5625C4.91133 0.5625 3.44278 1.0645 2.33311 1.97599C1.1913 2.91393 0.5625 4.17059 0.5625 5.5145C0.5625 6.7731 1.13737 7.98581 2.15332 8.89805C1.82178 9.69592 1.33733 10.4212 0.727277 11.0331L0.5625 11.1978V12.375H1.125C2.16517 12.3749 3.19104 12.1326 4.1214 11.6675C4.01938 11.2808 3.95961 10.8842 3.94313 10.4846C3.37844 10.8156 2.75993 11.0446 2.11588 11.1613V11.1613Z" fill="white"/>
</svg>
