<svg width="18" height="18" viewBox="0 0 18 18" fill="none" xmlns="http://www.w3.org/2000/svg">
<path d="M10.365 16.5H7.63497C7.46392 16.5 7.298 16.4416 7.16473 16.3344C7.03145 16.2271 6.93883 16.0776 6.90222 15.9105L6.59697 14.4975C6.18977 14.3191 5.80365 14.096 5.44572 13.8323L4.06797 14.271C3.9049 14.323 3.72894 14.3177 3.56931 14.2559C3.40969 14.1941 3.27601 14.0795 3.19047 13.9313L1.82247 11.568C1.73783 11.4196 1.70606 11.2469 1.73236 11.0781C1.75865 10.9093 1.84146 10.7544 1.96722 10.6388L3.03597 9.66375C2.98737 9.22208 2.98737 8.77642 3.03597 8.33475L1.96722 7.362C1.84128 7.24633 1.75836 7.09131 1.73206 6.92234C1.70576 6.75337 1.73764 6.58048 1.82247 6.432L3.18747 4.06725C3.27301 3.91899 3.40669 3.80444 3.56631 3.74264C3.72594 3.68084 3.9019 3.6755 4.06497 3.7275L5.44272 4.16625C5.62572 4.03125 5.81622 3.90525 6.01272 3.79125C6.20247 3.68475 6.39747 3.588 6.59697 3.50175L6.90297 2.09025C6.9394 1.92315 7.03185 1.77352 7.16498 1.66616C7.29812 1.55881 7.46395 1.50018 7.63497 1.5H10.365C10.536 1.50018 10.7018 1.55881 10.835 1.66616C10.9681 1.77352 11.0605 1.92315 11.097 2.09025L11.406 3.5025C11.8129 3.68092 12.1988 3.90404 12.5565 4.16775L13.935 3.729C14.098 3.67719 14.2737 3.68263 14.4332 3.74442C14.5927 3.80621 14.7262 3.92065 14.8117 4.06875L16.1767 6.4335C16.3507 6.73875 16.2907 7.125 16.032 7.36275L14.9632 8.33775C15.0118 8.77942 15.0118 9.22508 14.9632 9.66675L16.032 10.6418C16.2907 10.8803 16.3507 11.2658 16.1767 11.571L14.8117 13.9357C14.7262 14.084 14.5925 14.1986 14.4329 14.2604C14.2733 14.3222 14.0973 14.3275 13.9342 14.2755L12.5565 13.8367C12.1988 14.1003 11.8129 14.3231 11.406 14.5012L11.097 15.9105C11.0604 16.0775 10.9679 16.2269 10.8348 16.3341C10.7016 16.4413 10.5359 16.4999 10.365 16.5ZM5.71497 12.1718L6.32997 12.6218C6.46872 12.7238 6.61272 12.8175 6.76272 12.903C6.90372 12.9848 7.04772 13.0582 7.19697 13.125L7.89672 13.4318L8.23947 15H9.76197L10.1047 13.431L10.8045 13.1243C11.1097 12.9893 11.4 12.822 11.6692 12.6248L12.2842 12.1747L13.8157 12.6622L14.577 11.3438L13.3897 10.2615L13.4737 9.5025C13.5112 9.17025 13.5112 8.835 13.4737 8.5035L13.3897 7.7445L14.5777 6.66L13.8157 5.34075L12.285 5.82825L11.6692 5.37825C11.3998 5.18002 11.1099 5.0113 10.8045 4.875L10.1047 4.56825L9.76197 3H8.23947L7.89447 4.569L7.19697 4.875C6.89111 5.00896 6.60108 5.17648 6.33222 5.3745L5.71647 5.8245L4.18647 5.337L3.42372 6.66L4.61097 7.74075L4.52697 8.5005C4.48947 8.83275 4.48947 9.168 4.52697 9.4995L4.61097 10.2585L3.42372 11.3408L4.18497 12.6592L5.71497 12.1718V12.1718ZM8.99697 12C8.20133 12 7.43826 11.6839 6.87565 11.1213C6.31304 10.5587 5.99697 9.79565 5.99697 9C5.99697 8.20435 6.31304 7.44129 6.87565 6.87868C7.43826 6.31607 8.20133 6 8.99697 6C9.79262 6 10.5557 6.31607 11.1183 6.87868C11.6809 7.44129 11.997 8.20435 11.997 9C11.997 9.79565 11.6809 10.5587 11.1183 11.1213C10.5557 11.6839 9.79262 12 8.99697 12ZM8.99697 7.5C8.70324 7.5003 8.41606 7.58683 8.17106 7.74886C7.92606 7.91089 7.73402 8.14128 7.61877 8.41146C7.50353 8.68164 7.47014 8.97971 7.52276 9.26869C7.57537 9.55768 7.71168 9.82485 7.91476 10.0371C8.11784 10.2493 8.37876 10.3972 8.66514 10.4625C8.95153 10.5278 9.25078 10.5075 9.52577 10.4043C9.80076 10.301 10.0394 10.1193 10.212 9.88167C10.3847 9.64403 10.4838 9.36094 10.497 9.0675V9.3675V9C10.497 8.60218 10.3389 8.22064 10.0576 7.93934C9.77633 7.65804 9.3948 7.5 8.99697 7.5Z" fill="white"/>
</svg>
