<svg width="18" height="18" viewBox="0 0 18 18" fill="none" xmlns="http://www.w3.org/2000/svg">
<path d="M1.74375 6.77813C2.13905 5.84246 2.71214 4.99237 3.43125 4.275C4.14862 3.55589 4.99871 2.9828 5.93437 2.5875C6.90644 2.17617 7.93652 1.96875 9 1.96875C10.0635 1.96875 11.0936 2.17617 12.0656 2.5875C13.0013 2.9828 13.8514 3.55589 14.5688 4.275C15.2879 4.99237 15.8609 5.84246 16.2563 6.77813C16.6676 7.7502 16.875 8.78027 16.875 9.84375C16.875 12.1764 15.8502 14.3736 14.0643 15.8748L14.0344 15.8994C13.9324 15.9838 13.8041 16.0312 13.6723 16.0312H4.32598C4.19414 16.0312 4.06582 15.9838 3.96387 15.8994L3.93398 15.8748C2.1498 14.3736 1.125 12.1764 1.125 9.84375C1.125 8.78027 1.33418 7.7502 1.74375 6.77813ZM9.52734 4.07812C9.52734 4.00078 9.46406 3.9375 9.38672 3.9375H8.61328C8.53594 3.9375 8.47266 4.00078 8.47266 4.07812V5.48438C8.47266 5.56172 8.53594 5.625 8.61328 5.625H9.38672C9.46406 5.625 9.52734 5.56172 9.52734 5.48438V4.07812ZM13.2539 10.2305C13.2539 10.3078 13.3172 10.3711 13.3945 10.3711H14.8008C14.8781 10.3711 14.9414 10.3078 14.9414 10.2305V9.45703C14.9414 9.37969 14.8781 9.31641 14.8008 9.31641H13.3945C13.3172 9.31641 13.2539 9.37969 13.2539 9.45703V10.2305ZM11.6596 6.63574L12.2062 7.18242C12.2327 7.20859 12.2684 7.22327 12.3056 7.22327C12.3428 7.22327 12.3785 7.20859 12.4049 7.18242L13.3998 6.1875C13.426 6.16107 13.4407 6.12538 13.4407 6.08818C13.4407 6.05099 13.426 6.0153 13.3998 5.98887L12.8531 5.44219C12.7986 5.3877 12.709 5.3877 12.6545 5.44219L11.6596 6.43711C11.6051 6.4916 11.6051 6.58125 11.6596 6.63574ZM6.54258 8.10527L8.02793 9.59062C7.94004 9.91934 8.02441 10.2832 8.28281 10.5416C8.37416 10.6331 8.48267 10.7057 8.60211 10.7553C8.72155 10.8048 8.8496 10.8303 8.97891 10.8303C9.10822 10.8303 9.23626 10.8048 9.3557 10.7553C9.47515 10.7057 9.58365 10.6331 9.675 10.5416C9.76652 10.4503 9.83913 10.3417 9.88867 10.2223C9.93822 10.1029 9.96372 9.97482 9.96372 9.84551C9.96372 9.7162 9.93822 9.58815 9.88867 9.46871C9.83913 9.34927 9.76652 9.24076 9.675 9.14941C9.55295 9.02699 9.40074 8.93895 9.23376 8.8942C9.06678 8.84944 8.89094 8.84956 8.72402 8.89453L7.23867 7.40918C7.18418 7.35469 7.09453 7.35469 7.04004 7.40918L6.54258 7.90664C6.48809 7.96113 6.48809 8.04902 6.54258 8.10527ZM5.78672 7.18418L6.3334 6.6375C6.35957 6.61107 6.37425 6.57538 6.37425 6.53818C6.37425 6.50099 6.35957 6.4653 6.3334 6.43887L5.33848 5.44395C5.28398 5.38945 5.19434 5.38945 5.13984 5.44395L4.59316 5.99062C4.53867 6.04512 4.53867 6.13477 4.59316 6.18926L5.58809 7.18418C5.61452 7.21035 5.65021 7.22503 5.6874 7.22503C5.7246 7.22503 5.76029 7.21035 5.78672 7.18418ZM3.12891 10.2305C3.12891 10.3078 3.19219 10.3711 3.26953 10.3711H4.67578C4.75313 10.3711 4.81641 10.3078 4.81641 10.2305V9.45703C4.81641 9.37969 4.75313 9.31641 4.67578 9.31641H3.26953C3.19219 9.31641 3.12891 9.37969 3.12891 9.45703V10.2305Z" fill="#C4C4C4"/>
</svg>
