<svg width="55" height="55" viewBox="0 0 55 55" fill="none" xmlns="http://www.w3.org/2000/svg">
<path d="M27.5 16.5C38.225 16.5 46.75 14.025 46.75 11C46.75 7.975 38.225 5.5 27.5 5.5C16.775 5.5 8.25 7.975 8.25 11C8.25 14.025 16.775 16.5 27.5 16.5ZM27.5 41.25C16.775 41.25 8.25 38.775 8.25 35.75V44C8.25 47.025 16.775 49.5 27.5 49.5C38.225 49.5 46.75 47.025 46.75 44V35.75C46.75 38.775 38.225 41.25 27.5 41.25ZM27.5 30.25C16.775 30.25 8.25 27.775 8.25 24.75V33C8.25 36.025 16.775 38.5 27.5 38.5C38.225 38.5 46.75 36.025 46.75 33V24.75C46.75 27.775 38.225 30.25 27.5 30.25ZM27.5 19.25C16.775 19.25 8.25 16.775 8.25 13.75V22C8.25 25.025 16.775 27.5 27.5 27.5C38.225 27.5 46.75 25.025 46.75 22V13.75C46.75 16.775 38.225 19.25 27.5 19.25Z" fill="#67757C"/>
</svg>
