<svg width="55" height="55" viewBox="0 0 55 55" fill="none" xmlns="http://www.w3.org/2000/svg">
<path d="M46.4062 27.8223H27.1777V8.59375C27.1777 8.35742 26.9843 8.16406 26.748 8.16406H25.3515C22.5301 8.15944 19.7356 8.71275 17.1288 9.79216C14.522 10.8716 12.1543 12.4558 10.1621 14.4536C8.20007 16.4096 6.63676 18.7281 5.55905 21.2803C4.4376 23.9274 3.86214 26.7736 3.86716 29.6484C3.86254 32.4699 4.41585 35.2644 5.49526 37.8712C6.57466 40.478 8.15886 42.8456 10.1567 44.8379C12.1279 46.8091 14.4267 48.3613 16.9834 49.4409C19.6305 50.5624 22.4767 51.1379 25.3515 51.1328C28.173 51.1375 30.9675 50.5841 33.5743 49.5047C36.1811 48.4253 38.5487 46.8411 40.541 44.8433C42.5122 42.8721 44.0644 40.5733 45.144 38.0166C46.2655 35.3695 46.8409 32.5233 46.8359 29.6484V28.252C46.8359 28.0156 46.6426 27.8223 46.4062 27.8223ZM37.9038 42.3135C36.2406 43.9637 34.2682 45.2695 32.0995 46.1562C29.9308 47.0428 27.6085 47.4929 25.2656 47.4805C20.5337 47.459 16.0864 45.606 12.7402 42.2598C9.37253 38.8921 7.5195 34.4126 7.5195 29.6484C7.5195 24.8843 9.37253 20.4048 12.7402 17.0371C15.6728 14.1045 19.4487 12.3159 23.5254 11.9077V31.4746H43.0923C42.6787 35.5728 40.874 39.3701 37.9038 42.3135V42.3135ZM51.1328 24.8359L50.9931 23.3213C50.5366 18.3745 48.3398 13.707 44.8056 10.1836C41.269 6.65369 36.6111 4.4691 31.6357 4.00683L30.1157 3.86719C29.8633 3.8457 29.6484 4.03906 29.6484 4.2915V24.9219C29.6484 25.1582 29.8418 25.3516 30.0781 25.3516L50.7031 25.2979C50.9555 25.2979 51.1543 25.083 51.1328 24.8359ZM33.29 21.71V7.92774C36.6735 8.6359 39.7784 10.3115 42.2275 12.751C44.6821 15.2002 46.3633 18.3154 47.0615 21.6724L33.29 21.71Z" fill="#67757C"/>
</svg>
