<svg width="55" height="55" viewBox="0 0 55 55" fill="none" xmlns="http://www.w3.org/2000/svg">
<path d="M48.125 27.5V37.8125H6.875V10.3125H18.9062V6.875H6.875C5.96332 6.875 5.08898 7.23716 4.44432 7.88182C3.79966 8.52648 3.4375 9.40082 3.4375 10.3125V37.8125C3.4375 38.7242 3.79966 39.5985 4.44432 40.2432C5.08898 40.8878 5.96332 41.25 6.875 41.25H20.625V48.125H13.75V51.5625H41.25V48.125H34.375V41.25H48.125C49.0367 41.25 49.911 40.8878 50.5557 40.2432C51.2003 39.5985 51.5625 38.7242 51.5625 37.8125V27.5H48.125ZM30.9375 48.125H24.0625V41.25H30.9375V48.125Z" fill="#67757C"/>
<path d="M30.9375 30.9375H30.9203C30.55 30.9336 30.1908 30.8102 29.8963 30.5857C29.6017 30.3612 29.3876 30.0475 29.2858 29.6914L26.2041 18.9063H18.9062V15.4688H27.5C27.8736 15.4685 28.2371 15.5901 28.5354 15.8149C28.8337 16.0398 29.0507 16.3557 29.1534 16.7149L30.9994 23.1774L36.1711 6.36798C36.2827 6.01915 36.5013 5.71435 36.796 5.49683C37.0906 5.27932 37.4463 5.16015 37.8125 5.15626C38.1746 5.15081 38.5289 5.26224 38.8227 5.47401C39.1165 5.68577 39.3342 5.98661 39.4436 6.33188L42.4875 15.4688H51.5625V18.9063H41.25C40.8891 18.9063 40.5374 18.7928 40.2446 18.5818C39.9519 18.3708 39.7329 18.073 39.6189 17.7306L37.8778 12.5056L32.5806 29.7241C32.4725 30.0755 32.2546 30.3829 31.9589 30.6014C31.6631 30.8198 31.3051 30.9376 30.9375 30.9375Z" fill="#67757C"/>
</svg>
