<svg width="18" height="20" viewBox="0 0 18 20" fill="none" xmlns="http://www.w3.org/2000/svg">
<path d="M17.3571 3.50304H12.8571V0.87576L12.2143 0H5.78571L5.14286 0.87576V3.50304H0.642857L0 4.3788V18.391L0.642857 19.2667H17.3571L18 18.391V4.3788L17.3571 3.50304ZM6.42857 1.75152H11.5714V3.50304H6.42857V1.75152ZM16.7143 5.25456V6.58572L11.5714 10.5091V9.63336L10.9414 8.7576H7.08429L6.42857 9.63336V10.5091L1.28571 6.49814V5.25456H16.7143ZM10.2857 10.5091V12.2606H7.71429V10.5091H10.2857ZM1.28571 17.5152V8.51239L6.42857 12.5234V13.1364L7.07143 14.0122H10.9286L11.5714 13.1364V12.5934L16.7143 8.59996V17.5152H1.28571Z" fill="#C4C4C4"/>
</svg>
