<svg width="18" height="20" viewBox="0 0 18 20" fill="none" xmlns="http://www.w3.org/2000/svg">
<path d="M3.31579 0C1.48737 0 0 1.57 0 3.5C0 5.08 1.00421 6.403 2.36842 6.837V13.997C2.36747 14.176 2.394 15.778 3.48063 16.928C4.15137 17.64 5.04947 18 6.14842 18V20L9.93789 17L6.14842 14V16C4.42137 16 4.26884 14.466 4.26316 14V6.837C5.62737 6.403 6.63158 5.08 6.63158 3.5C6.63158 1.57 5.14326 0 3.31579 0ZM3.31579 5C2.53232 5 1.89474 4.327 1.89474 3.5C1.89474 2.673 2.53232 2 3.31579 2C4.09926 2 4.73684 2.673 4.73684 3.5C4.73684 4.327 4.09926 5 3.31579 5ZM15.6316 13.163V5.997C15.6268 4.391 14.6113 2 11.8326 2V0L8.04316 3L11.8326 6V4C13.5654 4 13.7283 5.539 13.7368 6V13.163C12.3726 13.597 11.3684 14.92 11.3684 16.5C11.3684 18.43 12.8558 20 14.6842 20C16.5126 20 18 18.43 18 16.5C18 14.92 16.9958 13.597 15.6316 13.163ZM14.6842 18C13.9007 18 13.2632 17.327 13.2632 16.5C13.2632 15.673 13.9007 15 14.6842 15C15.4677 15 16.1053 15.673 16.1053 16.5C16.1053 17.327 15.4677 18 14.6842 18Z" fill="#C4C4C4"/>
</svg>
