<svg width="24" height="24" viewBox="0 0 24 24" fill="none" xmlns="http://www.w3.org/2000/svg">
<path d="M18.1306 13.5937C18.1347 12.5006 17.8464 11.4262 17.2957 10.482C16.7449 9.53775 15.9517 8.75793 14.9982 8.22333C14.0448 7.68874 12.9657 7.4188 11.8728 7.4415C10.7799 7.4642 9.71293 7.77871 8.78246 8.35244C7.85199 8.92616 7.09185 9.73825 6.58078 10.7046C6.06972 11.6709 5.82631 12.7562 5.87579 13.8482C5.92527 14.9403 6.26583 15.9992 6.86219 16.9153C7.45855 17.8314 8.28901 18.5714 9.26755 19.0587V22.0714C9.27212 22.2495 9.34611 22.4188 9.47372 22.5432C9.60134 22.6675 9.77249 22.7371 9.95068 22.737H14.0494C14.2276 22.7371 14.3987 22.6675 14.5264 22.5432C14.654 22.4188 14.728 22.2495 14.7325 22.0714V19.0061C15.7419 18.5037 16.5931 17.7326 17.1926 16.7777C17.7921 15.8228 18.1167 14.7211 18.1306 13.5937V13.5937Z" stroke="white" stroke-width="2" stroke-linecap="round" stroke-linejoin="round"/>
<path d="M12 1V3.62739" stroke="white" stroke-width="2" stroke-linecap="round" stroke-linejoin="round"/>
<path d="M19.0063 3.50508L17.1497 5.37929" stroke="white" stroke-width="2" stroke-linecap="round" stroke-linejoin="round"/>
<path d="M23.0001 8.93434H20.3727" stroke="white" stroke-width="2" stroke-linecap="round" stroke-linejoin="round"/>
<path d="M4.99365 3.50508L6.85034 5.37929" stroke="white" stroke-width="2" stroke-linecap="round" stroke-linejoin="round"/>
<path d="M1 8.93434H3.62739" stroke="white" stroke-width="2" stroke-linecap="round" stroke-linejoin="round"/>
</svg>
