<svg width="24" height="21" viewBox="0 0 24 21" fill="none" xmlns="http://www.w3.org/2000/svg">
<path d="M10.9368 3.24729L10.3846 1.82187C10.2915 1.58053 10.1276 1.37294 9.91455 1.22629C9.70145 1.07964 9.44903 1.00076 9.19034 1H8.13732C7.87864 1.00076 7.62622 1.07964 7.41312 1.22629C7.20002 1.37294 7.03617 1.58053 6.94305 1.82187L6.39086 3.24729L4.49029 4.32599L2.97497 4.09484C2.72265 4.0606 2.46585 4.10213 2.23719 4.21417C2.00854 4.32621 1.81835 4.5037 1.6908 4.72409L1.17713 5.623C1.04551 5.8469 0.984866 6.10544 1.00321 6.36451C1.02155 6.62358 1.11801 6.871 1.27987 7.07411L2.24299 8.26839V10.4258L1.30555 11.6201C1.1437 11.8232 1.04723 12.0706 1.02889 12.3297C1.01055 12.5887 1.07119 12.8473 1.20282 13.0712L1.71649 13.9701C1.84403 14.1905 2.03422 14.368 2.26288 14.48C2.49153 14.592 2.74834 14.6336 3.00065 14.5993L4.51597 14.3682L5.45341 14.9075M7.68097 11.7199C7.21167 11.5255 6.81055 11.1963 6.52834 10.774C6.24613 10.3516 6.0955 9.85506 6.0955 9.34709C6.0955 8.66592 6.36609 8.01266 6.84775 7.531C7.3294 7.04935 7.98267 6.77875 8.66383 6.77875C9.1718 6.77875 9.66836 6.92938 10.0907 7.2116" stroke="white" stroke-width="2" stroke-linecap="round" stroke-linejoin="round"/>
<path d="M22.9117 7.24761C22.8869 7.11308 22.8341 6.98527 22.7567 6.87247C22.6793 6.75968 22.579 6.66443 22.4624 6.5929L19.8949 9.16039C19.7752 9.28463 19.6316 9.38346 19.4728 9.45096C19.314 9.51846 19.1432 9.55325 18.9706 9.55325C18.7981 9.55325 18.6273 9.51846 18.4685 9.45096C18.3097 9.38346 18.1661 9.28463 18.0463 9.16039L17.0707 8.28744C16.8355 8.04747 16.7037 7.72484 16.7037 7.38882C16.7037 7.05279 16.8355 6.73017 17.0707 6.4902L19.6382 3.9227C19.5822 3.79116 19.498 3.67354 19.3915 3.57815C19.285 3.48276 19.1589 3.41194 19.022 3.37069C18.1262 3.19204 17.1982 3.26851 16.3437 3.5914C15.4892 3.91428 14.7425 4.4706 14.1886 5.19701C13.6348 5.92343 13.296 6.79077 13.2109 7.70026C13.1258 8.60976 13.2978 9.52488 13.7073 10.3414L6.69802 17.2865C6.57574 17.4061 6.47859 17.5489 6.41226 17.7065C6.34593 17.8641 6.31177 18.0334 6.31177 18.2044C6.31177 18.3754 6.34593 18.5447 6.41226 18.7023C6.47859 18.8599 6.57574 19.0027 6.69802 19.1223L7.16016 19.5844C7.27972 19.7067 7.4225 19.8038 7.58013 19.8702C7.73775 19.9365 7.90703 19.9707 8.07804 19.9707C8.24905 19.9707 8.41834 19.9365 8.57596 19.8702C8.73359 19.8038 8.87637 19.7067 8.99592 19.5844L16.0052 12.588C16.822 12.9771 17.7307 13.1321 18.6302 13.0357C19.5298 12.9392 20.385 12.5952 21.1008 12.0417C21.8165 11.4883 22.3647 10.7472 22.6844 9.90085C23.0041 9.05448 23.0828 8.13602 22.9117 7.24761V7.24761Z" stroke="white" stroke-width="2" stroke-linecap="round" stroke-linejoin="round"/>
</svg>
