<svg width="24" height="24" viewBox="0 0 24 24" fill="none" xmlns="http://www.w3.org/2000/svg">
<path d="M23 23.001H1" stroke="#BACEE0" stroke-width="2" stroke-linecap="round" stroke-linejoin="round"/>
<path d="M14.5385 9.46251V17.0779C14.5385 18.0125 15.2961 18.7702 16.2308 18.7702H19.6154C20.55 18.7702 21.3077 18.0125 21.3077 17.0779V9.46251C21.3077 8.52787 20.55 7.7702 19.6154 7.7702H16.2308C15.2961 7.7702 14.5385 8.52787 14.5385 9.46251Z" stroke="#BACEE0" stroke-width="2" stroke-linecap="round" stroke-linejoin="round"/>
<path d="M2.69232 2.69328L2.69232 17.0779C2.69232 18.0125 3.44999 18.7702 4.38463 18.7702H7.76925C8.70388 18.7702 9.46155 18.0125 9.46155 17.0779V2.69328C9.46155 1.75864 8.70388 1.00097 7.76925 1.00097H4.38463C3.44999 1.00097 2.69232 1.75864 2.69232 2.69328Z" stroke="#BACEE0" stroke-width="2" stroke-linecap="round" stroke-linejoin="round"/>
</svg>
