<svg width="20" height="20" viewBox="0 0 20 20" fill="none" xmlns="http://www.w3.org/2000/svg">
<path fill-rule="evenodd" clip-rule="evenodd" d="M19 8H16.69C16.55 7.54 16.36 7.11 16.13 6.7L17.83 5C18.22 4.61 18.22 3.98 17.83 3.59L16.42 2.18C16.03 1.79 15.4 1.79 15.01 2.18L13.31 3.88C12.9 3.66 12.47 3.47 12.01 3.33V1C12.01 0.45 11.56 0 11.01 0H9C8.45 0 8 0.45 8 1V3.33C7.52 3.47 7.06 3.67 6.63 3.91L5 2.28C4.63 1.91 4.02001 1.91 3.64001 2.28L2.28003 3.64C1.91003 4.02 1.91003 4.63 2.28003 5L3.90002 6.62C3.66002 7.06 3.46 7.51 3.31 8H1C0.45 8 0 8.45 0 9V11C0 11.55 0.45 12 1 12H3.31C3.45 12.46 3.64 12.89 3.87 13.3L2.16998 15C1.77998 15.39 1.77998 16.02 2.16998 16.41L3.58002 17.82C3.97002 18.21 4.59999 18.21 4.98999 17.82L6.69 16.12C7.1 16.34 7.52999 16.53 7.98999 16.67V19C7.98999 19.55 8.43999 20 8.98999 20H10.99C11.54 20 11.99 19.55 11.99 19V16.67C12.47 16.53 12.93 16.32 13.36 16.08L15 17.72C15.37 18.09 15.98 18.09 16.36 17.72L17.72 16.36C18.09 15.99 18.09 15.38 17.72 15L16.1 13.38C16.34 12.95 16.55 12.49 16.7 12H19C19.55 12 20 11.55 20 11V9C20 8.45 19.55 8 19 8ZM10 14C7.79 14 6 12.21 6 10C6 7.79 7.79 6 10 6C12.21 6 14 7.79 14 10C14 12.21 12.21 14 10 14Z" fill="#67757C"/>
</svg>
