<svg width="24" height="24" viewBox="0 0 24 24" fill="none" xmlns="http://www.w3.org/2000/svg">
<path d="M4.80769 15.8087C6.91062 15.8087 8.61538 14.1039 8.61538 12.001C8.61538 9.89804 6.91062 8.19328 4.80769 8.19328C2.70476 8.19328 1 9.89804 1 12.001C1 14.1039 2.70476 15.8087 4.80769 15.8087Z" stroke="#33FFF9" stroke-width="2" stroke-linecap="round" stroke-linejoin="round"/>
<path d="M19.1923 23.001C21.2953 23.001 23 21.2962 23 19.1933C23 17.0904 21.2953 15.3856 19.1923 15.3856C17.0894 15.3856 15.3846 17.0904 15.3846 19.1933C15.3846 21.2962 17.0894 23.001 19.1923 23.001Z" stroke="#33FFF9" stroke-width="2" stroke-linecap="round" stroke-linejoin="round"/>
<path d="M19.1923 8.61636C21.2953 8.61636 23 6.9116 23 4.80867C23 2.70574 21.2953 1.00098 19.1923 1.00098C17.0894 1.00098 15.3846 2.70574 15.3846 4.80867C15.3846 6.9116 17.0894 8.61636 19.1923 8.61636Z" stroke="#33FFF9" stroke-width="2" stroke-linecap="round" stroke-linejoin="round"/>
<path d="M8.20923 10.3087L15.7908 6.50098" stroke="#33FFF9" stroke-width="2" stroke-linecap="round" stroke-linejoin="round"/>
<path d="M8.20923 13.6933L15.7908 17.501" stroke="#33FFF9" stroke-width="2" stroke-linecap="round" stroke-linejoin="round"/>
</svg>
