<?xml version="1.0" encoding="utf-8"?>
<!-- Generator: Adobe Illustrator 16.0.0, SVG Export Plug-In . SVG Version: 6.00 Build 0)  -->
<!DOCTYPE svg PUBLIC "-//W3C//DTD SVG 1.0//EN" "http://www.w3.org/TR/2001/REC-SVG-20010904/DTD/svg10.dtd">
<svg version="1.0" id="Layer_1" xmlns="http://www.w3.org/2000/svg" xmlns:xlink="http://www.w3.org/1999/xlink" x="0px" y="0px"
	 width="80px" height="80px" viewBox="0 0 80 80" enable-background="new 0 0 80 80" xml:space="preserve">
<g>
	<g>
		<path display="none" fill-rule="evenodd" clip-rule="evenodd" fill="#FFFFFF" d="M75.513,75.833c-23.763,0-47.518,0-71.265,0
			c0-23.203,0-46.398,0-69.585c23.763,0,47.517,0,71.265,0C75.513,29.45,75.513,52.646,75.513,75.833z M13.428,14.137
			c0.562,0,0.989,0,1.416,0c6.558,0,13.116-0.013,19.674,0.01c1.477,0.005,2.964,0.041,4.426,0.223
			c11.511,1.431,20.239,6.715,24.794,17.862c0.376,0.92,1.381,1.778,2.307,2.233c1.409,0.693,2.834,0.211,3.938-0.908
			c1.154-1.169,1.353-2.564,0.798-4.098c-2.237-6.188-6.005-11.253-11.257-15.191c-7.427-5.569-15.937-7.729-25.079-7.76
			c-9.077-0.03-18.154-0.007-27.232-0.007c-0.418,0-0.837,0-1.327,0c0,0.64,0,1.077,0,1.514c0,20.954,0,41.908,0.001,62.861
			c0,0.4-0.008,0.802,0.028,1.199c0.161,1.774,1.608,3.183,3.386,3.312c2.522,0.182,4.124-1.463,4.125-4.278
			c0.004-18.435,0.002-36.869,0.002-55.303C13.428,15.296,13.428,14.786,13.428,14.137z M21.503,75.221
			c6.067,0,11.976,0.058,17.883-0.037c1.698-0.026,3.419-0.371,5.075-0.786c1.947-0.487,3.042-2.501,2.592-4.381
			c-0.47-1.965-2.242-3.124-4.19-2.961c-3.934,0.33-7.879,0.515-11.814,0.836c-1.257,0.103-1.517-0.344-1.513-1.531
			c0.042-12.671,0.027-25.342,0.021-38.013c0-0.637-0.005-1.285-0.107-1.911c-0.357-2.2-2.498-3.655-4.686-3.225
			c-2.174,0.427-3.31,1.978-3.311,4.574c-0.004,15.429-0.002,30.857,0,46.286C21.455,74.463,21.487,74.854,21.503,75.221z
			 M72.49,46.196c-0.109-0.421-0.183-1.069-0.44-1.634c-0.688-1.506-2.241-2.285-3.959-2.08c-1.575,0.188-2.854,1.333-3.139,3.016
			c-1.08,6.373-4.06,11.621-9.094,15.703c-1.873,1.519-2.186,3.796-0.835,5.512c1.379,1.75,3.715,1.929,5.649,0.411
			c2.663-2.089,4.945-4.536,6.82-7.354C70.193,55.71,71.818,51.249,72.49,46.196z"/>
		<path fill-rule="evenodd" clip-rule="evenodd" d="M13.428,14.137c0,0.649,0,1.159,0,1.669c0,18.434,0.002,36.869-0.002,55.303
			c-0.001,2.815-1.602,4.46-4.125,4.278c-1.777-0.129-3.225-1.537-3.386-3.312c-0.036-0.397-0.028-0.799-0.028-1.199
			C5.886,49.924,5.886,28.97,5.886,8.016c0-0.438,0-0.875,0-1.514c0.49,0,0.909,0,1.327,0c9.078,0,18.155-0.023,27.232,0.007
			c9.143,0.03,17.652,2.19,25.079,7.76c5.252,3.938,9.02,9.003,11.257,15.191c0.555,1.534,0.356,2.929-0.798,4.098
			c-1.104,1.119-2.529,1.601-3.938,0.908c-0.926-0.455-1.931-1.313-2.307-2.233c-4.556-11.146-13.283-16.431-24.794-17.862
			c-1.462-0.182-2.95-0.218-4.426-0.223c-6.558-0.023-13.116-0.01-19.674-0.01C14.417,14.137,13.99,14.137,13.428,14.137z"/>
		<path fill-rule="evenodd" clip-rule="evenodd" d="M21.503,75.221c-0.016-0.366-0.049-0.758-0.049-1.149
			c-0.002-15.429-0.004-30.857,0-46.286c0.001-2.596,1.137-4.146,3.311-4.574c2.188-0.43,4.328,1.025,4.686,3.225
			c0.102,0.626,0.107,1.274,0.107,1.911c0.006,12.671,0.021,25.342-0.021,38.013c-0.004,1.188,0.256,1.634,1.513,1.531
			c3.935-0.321,7.88-0.506,11.814-0.836c1.948-0.163,3.721,0.996,4.19,2.961c0.45,1.88-0.645,3.894-2.592,4.381
			c-1.656,0.415-3.377,0.76-5.075,0.786C33.479,75.278,27.57,75.221,21.503,75.221z"/>
		<path fill-rule="evenodd" clip-rule="evenodd" d="M72.49,46.196c-0.672,5.053-2.297,9.514-4.997,13.573
			c-1.875,2.818-4.157,5.266-6.82,7.354c-1.935,1.518-4.271,1.339-5.649-0.411c-1.351-1.716-1.038-3.993,0.835-5.512
			c5.034-4.082,8.014-9.33,9.094-15.703c0.285-1.683,1.563-2.827,3.139-3.016c1.718-0.205,3.271,0.574,3.959,2.08
			C72.308,45.127,72.381,45.775,72.49,46.196z"/>
	</g>
</g>
</svg>
