<svg width="20" height="19" viewBox="0 0 20 19" fill="none" xmlns="http://www.w3.org/2000/svg">
<g clip-path="url(#clip0_64_54)">
<path d="M6.07189 17.4169C5.98151 17.4139 5.89553 17.373 5.83142 17.3023L3.07803 14.2507H2.51293C1.84985 14.25 1.21408 13.9577 0.745209 13.4381C0.276337 12.9184 0.0126606 12.2138 0.0120239 11.4789V2.77178C0.0120239 2.03666 0.275494 1.33164 0.744504 0.811833C1.21351 0.292024 1.84965 0 2.51293 0H13.9233C14.5866 0 15.2227 0.292024 15.6917 0.811833C16.1607 1.33164 16.4242 2.03666 16.4242 2.77178V11.4789C16.4236 12.2138 16.1598 12.9184 15.691 13.4381C15.2221 13.9577 14.5864 14.25 13.9233 14.2507H6.423V17.0198C6.42335 17.0982 6.40276 17.1749 6.36382 17.2404C6.32488 17.3058 6.26932 17.3571 6.20416 17.3876C6.16191 17.4056 6.11716 17.4156 6.07189 17.4169ZM2.5009 0.804887C2.02703 0.804887 1.57258 1.01352 1.23751 1.38488C0.90244 1.75625 0.714181 2.25992 0.714181 2.78511V11.4922C0.714181 12.0174 0.90244 12.5211 1.23751 12.8925C1.57258 13.2638 2.02703 13.4725 2.5009 13.4725H3.22231C3.31269 13.4754 3.39867 13.5164 3.46278 13.5871L5.70878 16.079V13.8642C5.70941 13.7594 5.74744 13.659 5.81457 13.5852C5.88169 13.5113 5.97246 13.4698 6.06707 13.4698H13.9233C14.3971 13.4698 14.8516 13.2612 15.1867 12.8898C15.5217 12.5184 15.71 12.0148 15.71 11.4896V2.77178C15.7068 2.24891 15.5172 1.74865 15.1824 1.38017C14.8477 1.01168 14.3951 0.804875 13.9233 0.804887H2.5009Z" fill="#C4C4C4"/>
<path d="M15.3661 19C15.32 18.9996 15.2743 18.9896 15.2315 18.9707C15.166 18.9411 15.1101 18.8905 15.0707 18.8255C15.0313 18.7605 15.0103 18.6839 15.0103 18.6056V16.6253H10.3667C9.89329 16.6246 9.43946 16.4157 9.10491 16.0444C8.77036 15.6731 8.58246 15.1699 8.58246 14.6451V13.8456H9.30387V14.6451C9.30387 14.9599 9.41653 15.2619 9.61714 15.4847C9.81776 15.7075 10.0899 15.8331 10.374 15.8338H15.3661C15.4131 15.8334 15.4596 15.8434 15.5031 15.863C15.5465 15.8827 15.5861 15.9117 15.6194 15.9484C15.6527 15.985 15.6791 16.0286 15.6971 16.0767C15.7152 16.1247 15.7244 16.1762 15.7244 16.2282V17.6488L17.2587 15.9484C17.3259 15.8748 17.4167 15.8336 17.5112 15.8338H18.2326C18.5166 15.8331 18.7888 15.7075 18.9894 15.4847C19.19 15.2619 19.3027 14.9599 19.3027 14.6451V8.31267C19.3027 7.99788 19.19 7.69594 18.9894 7.4731C18.7888 7.25026 18.5166 7.12472 18.2326 7.12401H16.0876V6.32446H18.2326C18.7058 6.32587 19.1593 6.53503 19.4937 6.90617C19.8281 7.2773 20.0162 7.78017 20.0169 8.30468V14.6371C20.0169 15.1619 19.829 15.6651 19.4944 16.0364C19.1599 16.4077 18.706 16.6166 18.2326 16.6173H17.6651L15.6258 18.8774C15.5924 18.9164 15.5521 18.9474 15.5074 18.9685C15.4628 18.9895 15.4147 19.0003 15.3661 19Z" fill="#C4C4C4"/>
<path d="M11.2012 11.876H7.14201C6.76434 11.8718 6.40319 11.7037 6.13612 11.4077C5.86906 11.1117 5.71735 10.7115 5.7136 10.2929V9.89577C5.7136 9.78974 5.7516 9.68805 5.81924 9.61308C5.88689 9.53811 5.97864 9.49599 6.0743 9.49599C6.16997 9.49599 6.26172 9.53811 6.32936 9.61308C6.39701 9.68805 6.43501 9.78974 6.43501 9.89577V10.2929C6.43501 10.5049 6.51101 10.7083 6.6463 10.8582C6.7816 11.0082 6.96509 11.0924 7.15642 11.0924H11.2156C11.3624 11.097 11.5051 11.0385 11.614 10.9293C11.7228 10.82 11.7895 10.6684 11.7999 10.5061C11.802 10.4132 11.7821 10.3213 11.7422 10.2396C11.7095 10.1673 11.6931 10.0872 11.6945 10.0063C11.696 9.92536 11.7151 9.84606 11.7504 9.77521C11.7857 9.70436 11.836 9.64411 11.897 9.59964C11.958 9.55517 12.0279 9.52783 12.1005 9.51998C12.1589 9.51621 12.2156 9.49768 12.2665 9.4658C12.3173 9.43392 12.3609 9.38955 12.3939 9.33609C12.469 9.23068 12.5117 9.10151 12.5161 8.96732C12.5204 8.83313 12.486 8.70091 12.4179 8.58984C12.3806 8.53244 12.3549 8.4667 12.3428 8.39719C12.3306 8.32769 12.3322 8.25608 12.3476 8.18735C12.3629 8.11862 12.3916 8.05441 12.4315 7.99919C12.4715 7.94397 12.5219 7.89906 12.5791 7.86758C12.6605 7.82224 12.73 7.75448 12.7809 7.67079C12.8319 7.58711 12.8625 7.49032 12.87 7.3897C12.8775 7.28909 12.8615 7.18803 12.8236 7.09623C12.7857 7.00443 12.7272 6.92497 12.6536 6.86547C12.5809 6.80539 12.5266 6.72216 12.4978 6.6269C12.469 6.53164 12.4672 6.42889 12.4925 6.33244C12.5264 6.20899 12.5213 6.07646 12.4781 5.95665C12.4307 5.83962 12.3531 5.74073 12.2551 5.67244C12.1571 5.60415 12.0431 5.56951 11.9274 5.57287H10.1815C9.57315 5.57287 9.30144 5.17576 9.30144 4.77332V3.19021C9.30144 2.97815 9.22544 2.77478 9.09015 2.62483C8.95486 2.47489 8.77136 2.39065 8.58003 2.39065V2.87839C8.58037 3.62648 8.36826 4.3557 7.97377 4.96273C7.57928 5.56976 7.02243 6.02379 6.38211 6.26047L6.19213 6.32977C6.14669 6.35062 6.09786 6.36088 6.04868 6.35991C5.9995 6.35894 5.95102 6.34675 5.90628 6.32411C5.86153 6.30147 5.82148 6.26886 5.7886 6.22831C5.75572 6.18777 5.73071 6.14017 5.71515 6.08845C5.6996 6.03673 5.69383 5.98202 5.69819 5.92771C5.70254 5.87341 5.71695 5.82069 5.74049 5.77282C5.76403 5.72495 5.79619 5.68297 5.83501 5.64949C5.87382 5.616 5.91846 5.59173 5.9661 5.57819L6.15606 5.50891C6.65405 5.32508 7.08709 4.97194 7.39361 4.49969C7.70012 4.02744 7.86453 3.46013 7.86343 2.87839V1.9962C7.86343 1.89088 7.90117 1.78987 7.96837 1.7154C8.03556 1.64093 8.1267 1.59909 8.22173 1.59909H8.58003C8.9577 1.60326 9.31882 1.77139 9.58588 2.06738C9.85295 2.36338 10.0047 2.76363 10.0084 3.1822V4.73867C10.0617 4.75926 10.118 4.7683 10.1744 4.76531H11.9202C12.1768 4.76422 12.428 4.84743 12.642 5.00444C12.856 5.16145 13.0232 5.38521 13.1225 5.64748C13.2065 5.87147 13.2323 6.11704 13.1971 6.35643C13.3213 6.49148 13.4185 6.65392 13.4825 6.83324C13.5465 7.01257 13.5759 7.2048 13.5686 7.39748C13.5613 7.59016 13.5177 7.77901 13.4404 7.95181C13.3632 8.1246 13.2541 8.2775 13.1201 8.40061C13.1993 8.62319 13.2276 8.86403 13.2024 9.10167C13.1773 9.3393 13.0994 9.56632 12.9758 9.76251C12.8552 9.96932 12.6796 10.1295 12.4732 10.2209C12.491 10.3192 12.499 10.4193 12.4973 10.5194C12.4835 10.8882 12.3403 11.2365 12.0982 11.4899C11.856 11.7433 11.5342 11.8819 11.2012 11.876Z" fill="#C4C4C4"/>
<path d="M5.35769 11.876H4.63627C4.49543 11.876 4.35596 11.8453 4.22584 11.7855C4.09572 11.7258 3.97749 11.6382 3.8779 11.5278C3.77831 11.4175 3.69931 11.2864 3.64542 11.1422C3.59152 10.998 3.56378 10.8434 3.56378 10.6873V5.938C3.56378 5.62275 3.67677 5.32041 3.8779 5.09749C4.07904 4.87457 4.35183 4.74933 4.63627 4.74933H5.35769C5.64172 4.75003 5.91389 4.87559 6.1145 5.09843C6.31512 5.32127 6.42778 5.62321 6.42777 5.938V10.6873C6.42778 11.0021 6.31512 11.3041 6.1145 11.5269C5.91389 11.7497 5.64172 11.8753 5.35769 11.876ZM4.63627 5.54089C4.54125 5.54089 4.45011 5.58273 4.38292 5.6572C4.31572 5.73167 4.27797 5.83268 4.27797 5.938V10.6873C4.27797 10.7927 4.31572 10.8937 4.38292 10.9681C4.45011 11.0426 4.54125 11.0844 4.63627 11.0844H5.35769C5.4523 11.0837 5.54282 11.0416 5.60949 10.9672C5.67617 10.8928 5.71358 10.7922 5.71358 10.6873V5.938C5.71358 5.83314 5.67617 5.73254 5.60949 5.65814C5.54282 5.58375 5.4523 5.5416 5.35769 5.54089H4.63627Z" fill="#C4C4C4"/>
</g>
<defs>
<clipPath id="clip0_64_54">
<rect width="20" height="19" fill="white"/>
</clipPath>
</defs>
</svg>
