<svg width="18" height="18" viewBox="0 0 18 18" fill="none" xmlns="http://www.w3.org/2000/svg">
<path d="M3.75 13.125C4.3725 13.125 4.875 12.6225 4.875 12C4.875 11.3775 4.3725 10.875 3.75 10.875C3.1275 10.875 2.625 11.3775 2.625 12C2.625 12.6225 3.1275 13.125 3.75 13.125ZM6.75 9.75C7.1625 9.75 7.5 9.4125 7.5 9C7.5 8.5875 7.1625 8.25 6.75 8.25C6.3375 8.25 6 8.5875 6 9C6 9.4125 6.3375 9.75 6.75 9.75ZM6.75 6.75C7.1625 6.75 7.5 6.4125 7.5 6C7.5 5.5875 7.1625 5.25 6.75 5.25C6.3375 5.25 6 5.5875 6 6C6 6.4125 6.3375 6.75 6.75 6.75ZM2.25 15.75H15.75V14.25H2.25V15.75ZM3.75 7.125C4.3725 7.125 4.875 6.6225 4.875 6C4.875 5.3775 4.3725 4.875 3.75 4.875C3.1275 4.875 2.625 5.3775 2.625 6C2.625 6.6225 3.1275 7.125 3.75 7.125ZM3.75 10.125C4.3725 10.125 4.875 9.6225 4.875 9C4.875 8.3775 4.3725 7.875 3.75 7.875C3.1275 7.875 2.625 8.3775 2.625 9C2.625 9.6225 3.1275 10.125 3.75 10.125ZM6.75 12.75C7.1625 12.75 7.5 12.4125 7.5 12C7.5 11.5875 7.1625 11.25 6.75 11.25C6.3375 11.25 6 11.5875 6 12C6 12.4125 6.3375 12.75 6.75 12.75ZM12.75 12.375C12.96 12.375 13.125 12.21 13.125 12C13.125 11.79 12.96 11.625 12.75 11.625C12.54 11.625 12.375 11.79 12.375 12C12.375 12.21 12.54 12.375 12.75 12.375ZM2.25 2.25V3.75H15.75V2.25H2.25ZM12.75 6.375C12.96 6.375 13.125 6.21 13.125 6C13.125 5.79 12.96 5.625 12.75 5.625C12.54 5.625 12.375 5.79 12.375 6C12.375 6.21 12.54 6.375 12.75 6.375ZM12.75 9.375C12.96 9.375 13.125 9.21 13.125 9C13.125 8.79 12.96 8.625 12.75 8.625C12.54 8.625 12.375 8.79 12.375 9C12.375 9.21 12.54 9.375 12.75 9.375ZM9.75 6.75C10.1625 6.75 10.5 6.4125 10.5 6C10.5 5.5875 10.1625 5.25 9.75 5.25C9.3375 5.25 9 5.5875 9 6C9 6.4125 9.3375 6.75 9.75 6.75ZM9.75 9.75C10.1625 9.75 10.5 9.4125 10.5 9C10.5 8.5875 10.1625 8.25 9.75 8.25C9.3375 8.25 9 8.5875 9 9C9 9.4125 9.3375 9.75 9.75 9.75ZM9.75 12.75C10.1625 12.75 10.5 12.4125 10.5 12C10.5 11.5875 10.1625 11.25 9.75 11.25C9.3375 11.25 9 11.5875 9 12C9 12.4125 9.3375 12.75 9.75 12.75Z" fill="#C4C4C4"/>
</svg>
