<svg width="20" height="24" viewBox="0 0 20 24" fill="none" xmlns="http://www.w3.org/2000/svg">
<path d="M13 23H7V12.7328C7 12.5383 7.06321 12.3517 7.17574 12.2142C7.28826 12.0767 7.44087 11.9994 7.6 11.9994H12.4C12.5591 11.9994 12.7117 12.0767 12.8243 12.2142C12.9368 12.3517 13 12.5383 13 12.7328V23V23Z" stroke="#C4C4C4" stroke-width="1.5" stroke-linecap="round" stroke-linejoin="round"/>
<path d="M18.4 23H13V19.4554C13 19.2609 13.0632 19.0743 13.1757 18.9368C13.2883 18.7993 13.4409 18.722 13.6 18.722H18.4C18.5591 18.722 18.7117 18.7993 18.8243 18.9368C18.9368 19.0743 19 19.2609 19 19.4554V22.2666C19 22.4611 18.9368 22.6477 18.8243 22.7852C18.7117 22.9227 18.5591 23 18.4 23V23Z" stroke="#C4C4C4" stroke-width="1.5" stroke-linecap="round" stroke-linejoin="round"/>
<path d="M7 23V17.0108C7 16.8163 6.93678 16.6297 6.82426 16.4922C6.71174 16.3547 6.55913 16.2774 6.4 16.2774H1.6C1.44087 16.2774 1.28826 16.3547 1.17574 16.4922C1.06321 16.6297 1 16.8163 1 17.0108V22.2666C1 22.4611 1.06321 22.6477 1.17574 22.7852C1.28826 22.9227 1.44087 23 1.6 23H7V23Z" stroke="#C4C4C4" stroke-width="1.5" stroke-linecap="round" stroke-linejoin="round"/>
<path d="M8.80591 3.58151L9.71491 1.22617C9.73945 1.15884 9.77943 1.10164 9.83001 1.0615C9.88059 1.02136 9.9396 1 9.99991 1C10.0602 1 10.1192 1.02136 10.1698 1.0615C10.2204 1.10164 10.2604 1.15884 10.2849 1.22617L11.1949 3.58151L13.2269 3.96164C13.4879 4.01053 13.5919 4.42122 13.4029 4.6559L11.9329 6.48932L12.2799 9.07812C12.3239 9.41058 12.0519 9.66482 11.8179 9.50714L9.99991 8.28486L8.18191 9.50714C7.94891 9.6636 7.67591 9.41058 7.71991 9.07812L8.06691 6.48932L6.59691 4.6559C6.40691 4.42122 6.51191 4.01053 6.77191 3.96164L8.80591 3.58273V3.58151Z" stroke="#C4C4C4" stroke-width="1.5" stroke-linecap="round" stroke-linejoin="round"/>
</svg>
