<svg width="55" height="55" viewBox="0 0 55 55" fill="none" xmlns="http://www.w3.org/2000/svg">
<path d="M47.7114 37.2324C45.4287 35.9111 42.6465 36.2656 40.772 37.9199L37.9253 36.271V28.123C37.9253 27.2798 37.4741 26.4956 36.7437 26.0767L29.439 21.8711V18.2671C31.813 17.4614 33.521 15.2163 33.521 12.5684C33.521 9.24365 30.8301 6.55273 27.5054 6.55273C24.1807 6.55273 21.4897 9.24365 21.4897 12.5684C21.4897 15.2163 23.1978 17.4614 25.5718 18.2671V21.8711L18.2671 26.0767C17.5366 26.4956 17.0855 27.2798 17.0855 28.123V36.2656L14.2388 37.9146C12.3643 36.2603 9.57666 35.9058 7.29932 37.2271C4.42578 38.8921 3.44824 42.5659 5.09717 45.4395C6.75147 48.313 10.4092 49.3013 13.272 47.6416C15.5547 46.3203 16.6397 43.7207 16.1509 41.2607L18.7666 39.7407L26.3184 44.0913C26.6836 44.3008 27.0918 44.4082 27.5 44.4082C27.9082 44.4082 28.3164 44.3008 28.6816 44.0913L36.228 39.7461L38.8438 41.2661C38.355 43.7207 39.4453 46.3257 41.7227 47.647C44.5855 49.3066 48.2485 48.3237 49.8975 45.4448C51.5518 42.5659 50.5742 38.8921 47.7114 37.2324V37.2324ZM11.564 44.666C11.2722 44.835 10.95 44.9446 10.6157 44.9885C10.2814 45.0324 9.9418 45.0098 9.61631 44.922C9.29083 44.8341 8.98594 44.6827 8.71919 44.4766C8.45243 44.2704 8.22909 44.0135 8.06201 43.7207C7.35303 42.4907 7.77197 40.9116 9.00195 40.2026C9.29369 40.0337 9.61596 39.9241 9.95022 39.8801C10.2845 39.8362 10.6241 39.8588 10.9496 39.9467C11.2751 40.0346 11.58 40.1859 11.8467 40.3921C12.1135 40.5982 12.3368 40.8551 12.5039 41.148C13.2129 42.3779 12.7939 43.957 11.564 44.666ZM24.9219 12.5684C24.9356 11.8937 25.2133 11.2513 25.6953 10.7791C26.1773 10.3068 26.8252 10.0423 27.5 10.0423C28.1748 10.0423 28.8227 10.3068 29.3047 10.7791C29.7867 11.2513 30.0644 11.8937 30.0781 12.5684C30.0644 13.243 29.7867 13.8854 29.3047 14.3576C28.8227 14.8299 28.1748 15.0944 27.5 15.0944C26.8252 15.0944 26.1773 14.8299 25.6953 14.3576C25.2133 13.8854 24.9356 13.243 24.9219 12.5684V12.5684ZM34.0527 36.5342L27.5 40.3101L20.9473 36.5342V28.9932L27.5 25.2173L34.0527 28.9932V36.5342V36.5342ZM46.938 43.7261C46.229 44.9561 44.6606 45.3804 43.436 44.6714C42.2114 43.9624 41.7871 42.3833 42.4961 41.1533C43.2051 39.9233 44.7734 39.499 45.9981 40.208C47.228 40.917 47.647 42.4907 46.938 43.7261Z" fill="#67757C"/>
</svg>
