<svg width="28" height="16" viewBox="0 0 28 16" fill="none" xmlns="http://www.w3.org/2000/svg">
<path fill-rule="evenodd" clip-rule="evenodd" d="M15.42 15.42L27.42 3.41998C27.78 3.05998 28 2.56 28 2C28 0.9 27.1 -3.93402e-08 26 -8.74228e-08C25.44 -1.11901e-07 24.94 0.220017 24.58 0.580017L14 11.18L3.41998 0.599975C3.05998 0.219975 2.56 -1.11202e-06 2 -1.1365e-06C0.9 -1.18458e-06 -3.93403e-08 0.899999 -8.74228e-08 2C-1.11901e-07 2.56 0.220016 3.05998 0.580017 3.41998L12.58 15.42C12.94 15.78 13.44 16 14 16C14.56 16 15.06 15.78 15.42 15.42Z" fill="#C4C4C4"/>
</svg>
